# This file uses centimeters as units for non-parametric coordinates.

mtllib low_helice_g.mtl
g default
v -337.628357 12.867918 -79.937042
v -329.797150 13.097059 -79.703773
v -329.810577 13.391835 -161.071228
v -337.589752 13.422328 -160.946915
v -408.767120 13.404321 -36.081421
v -404.599640 13.449545 -28.754536
v -337.603577 13.807797 -68.671524
v -340.724915 12.764823 -74.809189
v -327.005188 13.573231 -74.627922
v -330.936768 13.787944 -68.737076
v -261.644348 13.490799 -28.430431
v -257.488403 13.381003 -35.220333
v -336.966614 17.523277 -76.235573
v -338.808624 12.916346 -77.272964
v -328.746887 13.465733 -77.309509
v -330.409363 17.379353 -76.396622
v -333.850403 13.370565 -68.724884
v -334.260742 17.769045 -71.061104
v -257.621002 11.221099 -35.263500
v -261.970123 11.442874 -27.689280
v -330.284088 9.876440 -69.297920
v -327.532990 9.760589 -73.864243
v -249.764343 12.425743 -25.995955
v -281.523834 13.456382 -50.168396
v -282.205353 10.991320 -49.527733
v -286.653290 11.331678 -40.810726
v -286.695313 13.453004 -41.472164
v -330.872498 9.882607 -79.934471
v -336.549377 9.724372 -79.912773
v -336.897766 10.982551 -160.113678
v -330.680908 10.957627 -160.167816
v -333.735138 12.310091 -171.457977
v -328.144684 13.296457 -133.922668
v -328.191406 11.308695 -133.324295
v -338.733917 11.150314 -133.682434
v -339.491425 13.241104 -133.917526
v -404.220581 11.101425 -29.197882
v -408.359924 11.143591 -36.155426
v -340.112793 10.338666 -74.239403
v -336.893311 10.104838 -69.191742
v -417.701874 12.388964 -26.019741
v -386.030853 13.185775 -51.085201
v -385.884308 11.493107 -51.304562
v -380.026154 11.236370 -41.630360
v -380.385834 13.382586 -41.409203
v -338.428497 -7.167516 -77.151199
v -334.091888 -7.159592 -69.079781
v -329.065643 -7.164449 -77.226860
vt 0.010000 0.772965
vt 0.065932 0.772990
vt 0.057720 0.906815
vt 0.019374 0.906202
vt 0.665100 0.219258
vt 0.712428 0.246869
vt 0.639040 0.358077
vt 0.603203 0.337693
vt 0.339622 0.190409
vt 0.382103 0.165146
vt 0.501589 0.387325
vt 0.472812 0.406531
vt 0.962410 0.304864
vt 0.961620 0.292013
vt 0.986440 0.299453
vt 0.962157 0.318761
vt 0.800362 0.881653
vt 0.799801 0.867639
vt 0.797874 0.855126
vt 0.820253 0.872409
vt 0.281376 0.452541
vt 0.260630 0.470049
vt 0.258339 0.450392
vt 0.260526 0.435132
vt 0.967060 0.259999
vt 0.987722 0.272463
vt 0.801485 0.912439
vt 0.822290 0.900293
vt 0.057786 0.505728
vt 0.019184 0.506877
vt 0.022446 0.488632
vt 0.054769 0.489426
vt 0.035784 0.463125
vt 0.653331 0.519633
vt 0.772251 0.298140
vt 0.814847 0.319875
vt 0.675644 0.533076
vt 0.924544 0.579823
vt 0.937766 0.583479
vt 0.944368 0.826612
vt 0.923917 0.823781
vt 0.247661 0.203202
vt 0.258771 0.203422
vt 0.240040 0.431714
vt 0.309081 0.047732
vt 0.275912 0.068034
vt 0.264019 0.010000
vt 0.841953 0.178009
vt 0.887239 0.139618
vt 0.878965 0.199261
vt 0.924948 0.450899
vt 0.930072 0.409468
vt 0.936533 0.451610
vt 0.253391 0.010000
vt 0.258969 0.072220
vt 0.248244 0.073926
vt 0.554624 0.502883
vt 0.566788 0.634039
vt 0.515277 0.632289
vt 0.524249 0.503147
vt 0.799415 0.429897
vt 0.798916 0.571777
vt 0.788528 0.574904
vt 0.786693 0.434618
vt 0.953198 0.599100
vt 0.964104 0.600326
vt 0.965049 0.741313
vt 0.952323 0.736967
vt 0.038375 0.958014
vt 0.539701 0.447719
vt 0.793761 0.375616
vt 0.959248 0.796140
vt 0.781075 0.853921
vt 0.553688 0.894899
vt 0.525951 0.895006
vt 0.945760 0.318634
vt 0.381602 0.513254
vt 0.428870 0.484631
vt 0.489615 0.602846
vt 0.455620 0.623071
vt 0.576021 0.908795
vt 0.577189 0.787291
vt 0.586235 0.786508
vt 0.588102 0.906619
vt 0.247162 0.692233
vt 0.258403 0.694116
vt 0.258753 0.820934
vt 0.246455 0.818948
vt 0.589827 0.401779
vt 0.505144 0.668716
vt 0.253199 0.889555
vt 0.581447 0.956543
vt 0.579439 0.545171
vt 0.592405 0.541901
vt 0.294205 0.273883
vt 0.269541 0.289614
vt 0.241236 0.466329
vt 0.828467 0.025267
vt 0.798446 0.010000
vt 0.857651 0.304229
vt 0.948965 0.289041
vt 0.150815 0.451657
vt 0.780437 0.885644
vt 0.691986 0.868071
vt 0.781043 0.909508
vt 0.692011 0.910648
vt 0.857692 0.262128
vt 0.947745 0.262712
vt 0.430932 0.010000
vt 0.439814 0.093796
vt 0.393790 0.093812
vt 0.403027 0.010778
vn -0.001265 0.999986 0.005100
vn -0.001265 0.999986 0.005100
vn -0.001265 0.999986 0.005100
vn -0.001265 0.999986 0.005100
vn 0.352396 0.700186 0.620932
vn -0.353642 0.713672 -0.604656
vn -0.516390 0.650396 -0.557070
vn 0.228066 0.640870 0.732988
vn -0.306715 0.783869 0.539884
vn 0.415628 0.566345 -0.711693
vn 0.751221 0.486644 -0.445920
vn 0.033521 0.518913 0.854170
vn -0.534427 -0.776722 -0.333302
vn -0.752064 0.355262 -0.555147
vn -0.441899 0.849046 -0.289561
vn -0.809231 0.396177 -0.433807
vn 0.751221 0.486644 -0.445920
vn 0.464088 -0.869385 -0.169682
vn 0.798420 0.392931 -0.456213
vn 0.433496 0.851573 -0.294797
vn -0.023510 0.887821 0.459588
vn -0.035239 0.621366 0.782728
vn 0.009536 -0.027124 0.999587
vn 0.033521 0.518913 0.854170
vn -0.752064 0.355262 -0.555147
vn -0.035239 0.621366 0.782728
vn -0.023510 0.887821 0.459588
vn -0.441899 0.849046 -0.289561
vn 0.033521 0.518913 0.854170
vn 0.751221 0.486644 -0.445920
vn 0.433496 0.851573 -0.294797
vn -0.023510 0.887821 0.459588
vn 0.798420 0.392931 -0.456213
vn -0.809231 0.396177 -0.433807
vn -0.441899 0.849046 -0.289561
vn 0.433496 0.851573 -0.294797
vn -0.023510 0.887821 0.459588
vn 0.433496 0.851573 -0.294797
vn -0.441899 0.849046 -0.289561
vn 0.882957 -0.469379 -0.008423
vn 0.286870 -0.824507 -0.487744
vn -0.401710 -0.584374 0.705079
vn 0.284752 -0.437034 0.853181
vn 0.415628 0.566345 -0.711693
vn 0.286870 -0.824507 -0.487744
vn 0.882957 -0.469379 -0.008423
vn 0.751221 0.486644 -0.445920
vn -0.401710 -0.584374 0.705079
vn -0.306715 0.783869 0.539884
vn 0.033521 0.518913 0.854170
vn 0.284752 -0.437034 0.853181
vn 0.508658 0.665697 -0.545999
vn -0.166175 0.810289 0.561976
vn 0.866241 0.004830 0.499603
vn 0.481326 -0.694331 -0.535004
vn 0.866241 0.004830 0.499603
vn -0.251176 -0.523395 0.814229
vn 0.508658 0.665697 -0.545999
vn 0.866241 0.004830 0.499603
vn 0.481326 -0.694331 -0.535004
vn 0.866241 0.004830 0.499603
vn -0.166175 0.810289 0.561976
vn -0.251176 -0.523395 0.814229
vn 0.481326 -0.694331 -0.535004
vn 0.286870 -0.824507 -0.487744
vn 0.415628 0.566345 -0.711693
vn 0.508658 0.665697 -0.545999
vn -0.401710 -0.584374 0.705079
vn 0.286870 -0.824507 -0.487744
vn 0.481326 -0.694331 -0.535004
vn -0.251176 -0.523395 0.814229
vn -0.166175 0.810289 0.561976
vn -0.306715 0.783869 0.539884
vn -0.401710 -0.584374 0.705079
vn -0.251176 -0.523395 0.814229
vn 0.508658 0.665697 -0.545999
vn 0.415628 0.566345 -0.711693
vn -0.306715 0.783869 0.539884
vn -0.166175 0.810289 0.561976
vn 0.552340 -0.824083 -0.125728
vn 0.722867 -0.690905 -0.010659
vn -0.583528 -0.811966 -0.014373
vn -0.589248 -0.798030 -0.126238
vn 0.821750 0.529696 -0.210117
vn 0.725942 0.687593 -0.015002
vn 0.722867 -0.690905 -0.010659
vn 0.552340 -0.824083 -0.125728
vn -0.583528 -0.811966 -0.014373
vn -0.829127 0.558888 -0.013864
vn -0.801460 0.561938 -0.204666
vn -0.589248 -0.798030 -0.126238
vn -0.801460 0.561938 -0.204666
vn 0.821750 0.529696 -0.210117
vn -0.001162 0.001715 -0.999998
vn -0.001162 0.001715 -0.999998
vn 0.552340 -0.824083 -0.125728
vn -0.589248 -0.798030 -0.126238
vn 0.552340 -0.824083 -0.125728
vn -0.001162 0.001715 -0.999998
vn 0.821750 0.529696 -0.210117
vn -0.001162 0.001715 -0.999998
vn -0.589248 -0.798030 -0.126238
vn -0.801460 0.561938 -0.204666
vn 0.722867 -0.690905 -0.010659
vn 0.725942 0.687593 -0.015002
vn 0.798420 0.392931 -0.456213
vn 0.506033 -0.478593 -0.717551
vn -0.583528 -0.811966 -0.014373
vn 0.722867 -0.690905 -0.010659
vn 0.506033 -0.478593 -0.717551
vn -0.412444 -0.491581 -0.766967
vn -0.809231 0.396177 -0.433807
vn -0.829127 0.558888 -0.013864
vn -0.583528 -0.811966 -0.014373
vn -0.412444 -0.491581 -0.766967
vn -0.809231 0.396177 -0.433807
vn 0.798420 0.392931 -0.456213
vn 0.725942 0.687593 -0.015002
vn -0.829127 0.558888 -0.013864
vn -0.379964 -0.655035 -0.653114
vn 0.352861 -0.703054 0.617418
vn 0.221653 -0.731102 0.645259
vn -0.462632 -0.720638 -0.516385
vn -0.516390 0.650396 -0.557070
vn -0.353642 0.713672 -0.604656
vn -0.379964 -0.655035 -0.653114
vn -0.462632 -0.720638 -0.516385
vn 0.352861 -0.703054 0.617418
vn 0.352396 0.700186 0.620932
vn 0.228066 0.640870 0.732988
vn 0.221653 -0.731102 0.645259
vn -0.516390 0.650396 -0.557070
vn -0.865249 0.006132 0.501306
vn 0.228066 0.640870 0.732988
vn -0.865249 0.006132 0.501306
vn -0.462632 -0.720638 -0.516385
vn 0.221653 -0.731102 0.645259
vn 0.228066 0.640870 0.732988
vn -0.865249 0.006132 0.501306
vn 0.221653 -0.731102 0.645259
vn -0.865249 0.006132 0.501306
vn -0.516390 0.650396 -0.557070
vn -0.462632 -0.720638 -0.516385
vn -0.379964 -0.655035 -0.653114
vn -0.353642 0.713672 -0.604656
vn -0.752064 0.355262 -0.555147
vn -0.847318 -0.520265 0.106665
vn -0.808469 -0.502815 0.305869
vn 0.352861 -0.703054 0.617418
vn -0.379964 -0.655035 -0.653114
vn -0.847318 -0.520265 0.106665
vn -0.035239 0.621366 0.782728
vn 0.352396 0.700186 0.620932
vn 0.352861 -0.703054 0.617418
vn -0.808469 -0.502815 0.305869
vn -0.752064 0.355262 -0.555147
vn -0.353642 0.713672 -0.604656
vn 0.352396 0.700186 0.620932
vn -0.035239 0.621366 0.782728
vn -0.412444 -0.491581 -0.766967
vn -0.833354 -0.247045 -0.494459
vn -0.534427 -0.776722 -0.333302
vn -0.809231 0.396177 -0.433807
vn -0.833354 -0.247045 -0.494459
vn -0.847318 -0.520265 0.106665
vn -0.752064 0.355262 -0.555147
vn -0.534427 -0.776722 -0.333302
vn -0.808469 -0.502815 0.305869
vn -0.044327 -0.250987 0.966975
vn 0.009536 -0.027124 0.999587
vn -0.035239 0.621366 0.782728
vn -0.044327 -0.250987 0.966975
vn 0.284752 -0.437034 0.853181
vn 0.033521 0.518913 0.854170
vn 0.009536 -0.027124 0.999587
vn 0.882957 -0.469379 -0.008423
vn 0.835721 -0.266779 -0.479999
vn 0.464088 -0.869385 -0.169682
vn 0.751221 0.486644 -0.445920
vn 0.835721 -0.266779 -0.479999
vn 0.506033 -0.478593 -0.717551
vn 0.798420 0.392931 -0.456213
vn 0.464088 -0.869385 -0.169682
vn 0.835721 -0.266779 -0.479999
vn 0.882957 -0.469379 -0.008423
vn 0.284752 -0.437034 0.853181
vn -0.044327 -0.250987 0.966975
vn -0.044327 -0.250987 0.966975
vn -0.808469 -0.502815 0.305869
vn -0.847318 -0.520265 0.106665
vn -0.833354 -0.247045 -0.494459
vn 0.506033 -0.478593 -0.717551
vn 0.835721 -0.266779 -0.479999
vn -0.833354 -0.247045 -0.494459
vn -0.412444 -0.491581 -0.766967
s off
g polySurface3 low_low_helices low
usemtl lambert5SG
f 36/1/1 33/2/2 3/3/3 4/4/4
f 45/5/5 42/6/6 5/7/7 6/8/8
f 27/9/9 24/10/10 9/11/11 10/12/12
f 14/13/13 8/14/14 13/15/15 1/16/16
f 9/17/17 15/18/18 2/19/19 16/20/20
f 18/21/21 7/22/22 17/23/23 10/24/24
f 8/14/25 7/25/26 18/26/27 13/15/28
f 10/27/29 9/17/30 16/20/31 18/28/32
f 2/29/33 1/30/34 13/31/35 16/32/36
f 18/33/37 16/32/38 13/31/39
f 22/34/40 25/35/41 26/36/42 21/37/43
f 24/38/44 25/39/45 22/40/46 9/41/47
f 26/42/48 27/43/49 10/24/50 21/44/51
f 12/45/52 11/46/53 23/47/54
f 19/48/55 23/49/56 20/50/57
f 12/51/58 23/52/59 19/53/60
f 23/54/61 11/55/62 20/56/63
f 19/53/64 25/39/65 24/38/66 12/51/67
f 26/36/68 25/35/69 19/48/70 20/50/71
f 11/55/72 27/43/73 26/42/74 20/56/75
f 12/45/76 24/10/77 27/9/78 11/46/79
f 31/57/80 34/58/81 35/59/82 30/60/83
f 3/61/84 33/62/85 34/63/86 31/64/87
f 35/65/88 36/66/89 4/67/90 30/68/91
f 4/4/92 3/3/93 32/69/94
f 32/70/95 31/57/96 30/60/97
f 31/64/98 32/71/99 3/61/100
f 32/72/101 30/68/102 4/67/103
f 34/63/104 33/62/105 2/19/106 28/73/107
f 35/59/108 34/58/109 28/74/110 29/75/111
f 1/16/112 36/66/113 35/65/114 29/76/115
f 1/30/116 2/29/117 33/2/118 36/1/119
f 43/77/120 44/78/121 37/79/122 38/80/123
f 5/81/124 42/82/125 43/83/126 38/84/127
f 44/85/128 45/86/129 6/87/130 37/88/131
f 5/7/132 41/89/133 6/8/134
f 41/90/135 38/80/136 37/79/137
f 6/87/138 41/91/139 37/88/140
f 41/92/141 5/81/142 38/84/143
f 43/83/144 42/82/145 8/93/146 39/94/147
f 40/95/148 44/78/149 43/77/150 39/96/151
f 7/22/152 45/86/153 44/85/154 40/97/155
f 8/98/156 42/6/157 45/5/158 7/99/159
f 29/76/160 46/100/161 14/13/162 1/16/163
f 46/100/164 39/101/165 8/14/166 14/13/167
f 40/97/168 47/102/169 17/23/170 7/22/171
f 47/102/172 21/44/173 10/24/174 17/23/175
f 22/103/176 48/104/177 15/18/178 9/17/179
f 48/104/180 28/73/181 2/19/182 15/18/183
f 48/104/184 22/103/185 21/105/186 47/106/187
f 47/107/188 40/108/189 39/101/190 46/100/191
f 28/109/192 48/110/193 46/111/194 29/112/195
