# ProBuilder 4.4.0
# https://unity3d.com/unity/features/worldbuilding/probuilder
# 23/02/2021 18:13:05

mtllib ./plane.mtl
o plane

g plane
v 500 0 -500
v 500 0 0
v 0 0 -500
v 0 0 0
v 500 0 500
v 0 0 500
v -500 0 -500
v -500 0 0
v -500 0 500

vt -500.0002 -499.9996
vt -500.0002 0.0004272461
vt -0.0001525879 -499.9996
vt -0.0001525879 0.0004272461
vt -500 500
vt 0 500
vt 0 -500
vt 500 -500
vt 500 0
vt 500 500

vn 0 1 0

usemtl Default
f 3/3/1 4/4/1 2/2/1 1/1/1
f 4/4/1 6/6/1 5/5/1 2/2/1
f 7/8/1 8/9/1 4/4/1 3/7/1
f 8/9/1 9/10/1 6/6/1 4/4/1

