# Blender v2.83.3 OBJ File: ''
# www.blender.org
mtllib low_helice_g_origin_resize.mtl
o low_helice_d
v 0.204241 0.643397 -0.437108
v 0.297392 0.662056 -3.136132
v -0.269945 0.664824 -3.136389
v -0.187319 0.654854 -0.425445
v 2.342115 0.669130 1.489283
v 2.624365 0.659289 1.005483
v 0.359068 0.638242 -0.180715
v 0.203001 0.690390 0.126168
v -2.342412 0.672651 1.486136
v -2.600986 0.672819 1.051325
v -3.802757 0.669050 1.798728
v -3.594960 0.674540 2.138223
v 0.263254 0.645818 -0.303904
v 0.171154 0.876164 -0.252034
v -0.239832 0.673287 -0.305731
v -0.326918 0.678662 -0.171652
v -0.156710 0.868968 -0.260087
v 0.035858 0.888453 0.006689
v -0.130339 0.689398 0.122890
v 0.015343 0.668529 0.123500
v -3.796127 0.561055 1.796570
v -2.566910 0.549566 1.083358
v -2.344513 0.566584 1.519208
v -3.578671 0.572144 2.175281
v -4.188960 0.621287 2.259947
v -0.300528 0.488030 -0.133468
v -0.162973 0.493823 0.094848
v -0.133554 0.494131 -0.436980
v -0.267609 0.565436 -3.106471
v 0.259518 0.557517 -3.124377
v 0.150290 0.486219 -0.435895
v 0.202309 0.671118 -4.487602
v 0.009579 0.615506 -5.013155
v -0.186649 0.669593 -4.493817
v -0.143133 0.547883 -4.448647
v 0.167709 0.549129 -4.445940
v 2.617039 0.574656 0.994515
v 2.324131 0.561819 1.478225
v 0.167488 0.505242 0.100157
v 0.328463 0.516934 -0.152226
v 3.761179 0.670216 1.755672
v 3.552805 0.672477 2.122016
v 4.207916 0.619448 2.258756
v 3.533852 0.555072 2.099849
v 3.740820 0.557180 1.751972
v 0.244247 -0.358375 -0.297816
v 0.027418 -0.357979 0.105755
v -0.223894 -0.358222 -0.301599
vt 0.175475 0.505308
vt 0.184658 0.771396
vt 0.128726 0.771421
vt 0.136872 0.504158
vt 0.344815 0.328224
vt 0.392143 0.300613
vt 0.508182 0.522215
vt 0.478162 0.537482
vt 0.588118 0.226122
vt 0.630600 0.251384
vt 0.557578 0.368798
vt 0.524409 0.348496
vt 0.321049 0.916734
vt 0.321840 0.903882
vt 0.321588 0.889986
vt 0.345870 0.909294
vt 0.913005 0.397556
vt 0.913567 0.383541
vt 0.933458 0.392785
vt 0.911078 0.410068
vt 0.119815 0.429506
vt 0.140561 0.447014
vt 0.119711 0.464423
vt 0.117524 0.449163
vt 0.326490 0.948748
vt 0.347152 0.936284
vt 0.914689 0.352756
vt 0.935494 0.364901
vt 0.139890 0.487856
vt 0.172213 0.487062
vt 0.158875 0.461556
vt 0.720465 0.747766
vt 0.650764 0.627635
vt 0.693359 0.605901
vt 0.757477 0.726514
vt 0.195619 0.717751
vt 0.208842 0.714095
vt 0.207609 0.845964
vt 0.196023 0.846674
vt 0.106846 0.696353
vt 0.117956 0.696133
vt 0.118154 0.827335
vt 0.107429 0.825629
vt 0.512516 0.406531
vt 0.765751 0.786157
vt 0.201147 0.888105
vt 0.112576 0.889555
vt 0.215443 0.470962
vt 0.194992 0.473794
vt 0.531844 0.406143
vt 0.554157 0.392700
vt 0.099225 0.467841
vt 0.750085 0.029206
vt 0.721309 0.010000
vt 0.821051 0.857637
vt 0.807952 0.596777
vt 0.859462 0.595028
vt 0.848789 0.857743
vt 0.912120 0.693419
vt 0.901732 0.690292
vt 0.894280 0.411274
vt 0.312628 0.609646
vt 0.323533 0.608420
vt 0.305190 0.890113
vt 0.175284 0.904633
vt 0.156284 0.956446
vt 0.136938 0.905245
vt 0.820116 0.465621
vt 0.835038 0.410458
vt 0.850491 0.465886
vt 0.906965 0.889580
vt 0.899897 0.830578
vt 0.912619 0.835298
vt 0.311753 0.471779
vt 0.318677 0.412606
vt 0.324479 0.467433
vt 0.765391 0.173846
vt 0.812660 0.202469
vt 0.677994 0.413217
vt 0.653331 0.397487
vt 0.977035 0.732603
vt 0.974784 0.490485
vt 0.983831 0.491268
vt 0.990000 0.735874
vt 0.106347 0.207322
vt 0.117588 0.205438
vt 0.100421 0.433226
vt 0.318755 0.189404
vt 0.282918 0.209788
vt 0.269541 0.145703
vt 0.888933 0.018385
vt 0.873405 0.084255
vt 0.839410 0.064030
vt 0.112384 0.010000
vt 0.117938 0.078621
vt 0.105640 0.080607
vt 0.973616 0.368980
vt 0.979043 0.321233
vt 0.985698 0.371156
vt 0.217081 0.904517
vt 0.308394 0.919705
vt 0.010000 0.447898
vt 0.805191 0.397124
vt 0.893642 0.379551
vt 0.805216 0.354547
vt 0.894247 0.355687
vt 0.307175 0.946035
vt 0.217122 0.946618
vt 0.150815 0.155198
vt 0.159696 0.071402
vt 0.187602 0.072181
vt 0.196839 0.155214
vn 0.8092 0.3962 -0.4338
vn 0.8291 0.5589 -0.0139
vn -0.7259 0.6876 -0.0150
vn -0.7984 0.3929 -0.4562
vn -0.3524 0.7002 0.6209
vn 0.3537 0.7137 -0.6047
vn 0.7521 0.3553 -0.5551
vn 0.0352 0.6214 0.7827
vn 0.3067 0.7839 0.5399
vn -0.4156 0.5664 -0.7117
vn -0.5086 0.6657 -0.5460
vn 0.1662 0.8103 0.5620
vn 0.5345 -0.7767 -0.3332
vn 0.4419 0.8491 -0.2895
vn -0.4641 -0.8694 -0.1697
vn -0.7512 0.4866 -0.4459
vn -0.4335 0.8516 -0.2948
vn 0.0235 0.8878 0.4596
vn -0.0335 0.5189 0.8542
vn -0.0095 -0.0271 0.9996
vn -0.4813 -0.6943 -0.5350
vn -0.2869 -0.8245 -0.4877
vn 0.4017 -0.5844 0.7051
vn 0.2512 -0.5234 0.8142
vn -0.8662 0.0048 0.4996
vn -0.8830 -0.4694 -0.0084
vn -0.2847 -0.4370 0.8532
vn -0.5061 -0.4786 -0.7175
vn -0.7229 -0.6909 -0.0107
vn 0.5835 -0.8120 -0.0144
vn 0.4125 -0.4916 -0.7670
vn 0.8015 0.5619 -0.2047
vn 0.0012 0.0017 -1.0000
vn -0.8218 0.5297 -0.2101
vn -0.5524 -0.8241 -0.1257
vn 0.5892 -0.7980 -0.1262
vn 0.3800 -0.6550 -0.6531
vn -0.3529 -0.7030 0.6174
vn 0.8084 -0.5029 0.3059
vn 0.8473 -0.5203 0.1067
vn 0.5164 0.6504 -0.5571
vn -0.2281 0.6409 0.7330
vn 0.8652 0.0061 0.5013
vn -0.2217 -0.7311 0.6453
vn 0.4626 -0.7206 -0.5164
vn 0.8334 -0.2470 -0.4944
vn 0.0443 -0.2510 0.9670
vn -0.8357 -0.2668 -0.4800
usemtl lambert5SG
s 1
f 1/1/1 2/2/2 3/3/3 4/4/4
f 5/5/5 6/6/6 7/7/7 8/8/8
f 9/9/9 10/10/10 11/11/11 12/12/12
f 7/13/7 13/14/13 1/15/1 14/16/14
f 15/17/15 16/18/16 17/19/17 4/20/4
f 8/21/8 18/22/18 19/23/19 20/24/20
f 8/25/8 7/13/7 14/16/14 18/26/18
f 16/18/16 19/27/19 18/28/18 17/19/17
f 1/1/1 4/4/4 17/29/17 14/30/14
f 17/29/17 18/31/18 14/30/14
f 21/32/21 22/33/22 23/34/23 24/35/24
f 10/36/10 22/37/22 21/38/21 11/39/11
f 23/40/23 9/41/9 12/42/12 24/43/24
f 12/12/12 11/11/11 25/44/25
f 25/45/25 21/32/21 24/35/24
f 25/46/25 11/39/11 21/38/21
f 12/42/12 25/47/25 24/43/24
f 26/48/26 22/37/22 10/36/10 16/49/16
f 23/34/23 22/33/22 26/50/26 27/51/27
f 19/23/19 9/41/9 23/40/23 27/52/27
f 16/53/16 10/10/10 9/9/9 19/54/19
f 28/55/28 29/56/29 30/57/30 31/58/31
f 4/20/4 3/59/3 29/60/29 28/61/28
f 30/62/30 2/63/2 1/15/1 31/64/31
f 32/65/32 33/66/33 34/67/34
f 35/68/35 33/69/33 36/70/36
f 33/71/33 35/72/35 34/73/34
f 36/74/36 33/75/33 32/76/32
f 29/60/29 3/59/3 34/73/34 35/72/35
f 30/57/30 29/56/29 35/68/35 36/70/36
f 32/76/32 2/63/2 30/62/30 36/74/36
f 3/3/3 2/2/2 32/65/32 34/67/34
f 37/77/37 38/78/38 39/79/39 40/80/40
f 7/81/7 6/82/6 37/83/37 40/84/40
f 38/85/38 5/86/5 8/21/8 39/87/39
f 41/88/41 42/89/42 43/90/43
f 43/91/43 44/92/44 45/93/45
f 43/94/43 42/95/42 44/96/44
f 41/97/41 43/98/43 45/99/45
f 37/83/37 6/82/6 41/97/41 45/99/45
f 44/92/44 38/78/38 37/77/37 45/93/45
f 42/95/42 5/86/5 38/85/38 44/96/44
f 41/88/41 6/6/6 5/5/5 42/89/42
f 46/100/46 31/64/31 1/15/1 13/14/13
f 40/101/40 46/100/46 13/14/13 7/13/7
f 47/102/47 39/87/39 8/21/8 20/24/20
f 27/52/27 47/102/47 20/24/20 19/23/19
f 48/103/48 26/104/26 16/18/16 15/17/15
f 28/61/28 48/103/48 15/17/15 4/20/4
f 26/104/26 48/103/48 47/105/47 27/106/27
f 39/107/39 47/108/47 46/100/46 40/101/40
f 48/109/48 28/110/28 31/111/31 46/112/46
