# This file uses centimeters as units for non-parametric coordinates.

mtllib helice_gauche.mtl
g default
v -0.214720 1.263034 0.380268
v -0.400024 1.264894 0.103424
v -4.542993 1.163620 2.306507
v -4.210429 1.193740 2.823645
v -5.079156 1.162113 2.956084
v -5.053640 1.163041 3.000309
v -5.024659 1.114416 2.997054
v -5.062589 1.112854 2.930857
v -4.214388 1.101464 2.830127
v -4.536744 1.111792 2.317491
v -0.206682 0.979263 0.374904
v -0.385006 0.969442 0.083646
v -0.277923 -0.001123 -0.112216
v -0.003749 -0.000977 0.376541
v 0.220425 1.002626 0.380732
v 0.217324 1.260198 0.381903
v -0.152890 1.265078 -0.327211
v -0.156209 0.966537 -0.303690
v 0.132953 0.984221 -0.342119
v 0.262262 -0.002822 -0.124412
v 0.350055 0.996532 0.027946
v 0.390714 1.237523 0.053347
v 4.246863 1.163820 2.876587
v 4.544862 1.163857 2.327849
v 5.023011 1.179460 2.990982
v 5.044781 1.179667 2.949787
v 4.519631 1.087519 2.360556
v 5.051966 1.113591 2.948291
v 5.024405 1.110640 2.990162
v 4.238480 1.101722 2.845668
v 0.134733 1.258130 -0.342556
v 0.300017 1.174284 -5.019139
v -0.317489 1.177183 -5.008342
v 0.010020 1.170613 -5.783958
v -0.035835 1.171798 -5.781948
v 0.000005 1.528351 -0.000008
v -0.282675 1.087417 -5.008861
v -0.039040 1.117568 -5.775198
v 0.008049 1.117303 -5.787388
v 0.286908 1.099866 -5.014417
vt 0.275036 0.327770
vt 0.301378 0.346964
vt 0.069835 0.743485
vt 0.020549 0.708875
vt 0.000000 0.790672
vt 0.004224 0.793340
vt 0.130642 0.000249
vt 0.131371 0.005191
vt 0.126164 0.007390
vt 0.125100 0.000000
vt 0.068165 0.531242
vt 0.062946 0.531280
vt 0.053112 0.072211
vt 0.082035 0.069997
vt 0.444325 0.388114
vt 0.775882 0.704459
vt 0.770228 0.711536
vt 0.424766 0.407839
vt 0.836672 0.762919
vt 0.831377 0.764574
vt 0.119480 0.086732
vt 0.114396 0.085550
vt 0.667131 0.803634
vt 0.683492 0.882910
vt 0.677014 0.886621
vt 0.616986 0.835199
vt 0.398343 0.428831
vt 0.426864 0.411400
vt 0.931378 0.302609
vt 0.837366 0.328204
vt 0.829371 0.273963
vt 0.927201 0.269446
vt 0.395840 0.377592
vt 0.413293 0.359412
vt 0.960165 0.299042
vt 0.962131 0.347578
vt 0.932848 0.346598
vt 0.128695 0.099194
vt 0.140082 0.002625
vt 0.168553 0.000000
vt 0.181556 0.098842
vt 0.344694 0.464228
vt 0.770222 0.611958
vt 0.670033 0.602797
vt 0.680166 0.548239
vt 0.775600 0.575578
vt 0.778794 0.533707
vt 0.557121 0.855606
vt 0.524935 0.872635
vt 0.280843 0.478313
vt 0.334530 0.449161
vt 0.273678 0.400235
vt 0.269648 0.402364
vt 0.070064 0.047540
vt 0.067306 0.053795
vt 0.555440 0.472945
vt 0.520910 0.460291
vt 0.748910 0.052151
vt 0.796416 0.079613
vt 0.936940 0.887141
vt 0.913178 0.883507
vt 0.898825 0.420324
vt 0.907313 0.420573
vt 0.004078 0.000000
vt 0.007820 0.002604
vt 0.003887 0.008071
vt 0.000000 0.005067
vt 0.908456 0.342838
vt 0.914942 0.343326
vt 0.806403 0.000000
vt 0.810502 0.002709
vt 0.798698 0.582235
vt 0.805440 0.536562
vt 0.016014 0.069957
vt 0.044161 0.071466
vt 0.060414 0.529065
vt 0.000000 0.528015
vt 0.974715 0.805743
vt 0.965302 0.806097
vt 0.897365 0.410172
vt 0.882344 0.867423
vt 0.854007 0.871228
vt 0.841627 0.410751
vt 0.027565 0.603698
vt 0.032053 0.603896
vt 0.000341 0.000000
vt 0.004326 0.000056
vt 0.004222 0.004695
vt 0.000000 0.004739
vt 0.966863 0.885906
vt 0.961636 0.884739
vt 0.317836 0.301936
vt 0.842159 0.562008
vt 0.823583 0.608819
vt 0.030843 0.028823
vt 1.000000 0.325717
vt 0.270133 0.285786
vt 0.844401 0.000000
vt 0.849598 0.000582
vt 0.846994 0.080564
vt 0.839593 0.080268
vt 0.870082 0.334531
vt 0.865475 0.335723
vn 0.150904 0.918979 0.364289
vn -0.242713 0.916609 -0.317677
vn -0.197362 0.927183 -0.318402
vn 0.160375 0.938056 0.307133
vn -0.024486 0.994777 0.099090
vn -0.114247 0.990439 -0.077317
vn -0.149654 -0.982511 -0.110798
vn 0.029357 -0.969790 0.242167
vn -0.191815 -0.936793 -0.292620
vn -0.412450 -0.886680 -0.209007
vn 0.154485 -0.936322 0.315335
vn -0.005093 -0.872340 0.488873
vn -0.860170 -0.310161 -0.404855
vn 0.093554 -0.322234 0.942026
vn 0.021875 -0.908753 0.416761
vn -0.109061 0.949385 0.294573
vn -0.455679 0.888440 -0.055060
vn -0.457166 -0.847645 -0.269251
vn 0.414979 -0.881901 -0.223703
vn 0.850719 -0.307112 -0.426567
vn 0.433799 -0.880993 -0.188866
vn 0.249419 0.913159 -0.322384
vn -0.107335 0.969910 0.218525
vn 0.175386 0.946803 -0.269822
vn 0.136246 0.982441 -0.127460
vn -0.038168 0.984777 0.169581
vn -0.180863 -0.922458 0.341116
vn 0.171686 -0.951238 -0.256261
vn -0.007527 -0.980287 0.197434
vn 0.169838 -0.980941 -0.094395
vn 0.388321 0.920122 -0.050810
vn 0.362799 0.931781 -0.012703
vn -0.393806 0.919115 -0.012033
vn -0.373926 -0.927255 -0.019439
vn 0.408971 -0.912365 -0.018234
vn -0.158103 0.984903 -0.070500
vn 0.173159 0.981917 -0.076519
vn 0.196338 -0.974775 -0.106140
vn -0.162696 -0.981776 -0.098218
vn 0.022430 0.999068 -0.036873
s 1
g helice_G retopo
usemtl lambert21SG
f 1/1/1 2/2/2 3/3/3 4/4/4
f 6/5/5 4/4/4 3/3/3 5/6/6
f 6/7/5 5/8/6 8/9/7 7/10/8
f 10/11/9 3/12/3 2/13/2 12/14/10
f 1/15/1 4/16/4 9/17/11 11/18/12
f 4/16/4 6/19/5 7/20/8 9/17/11
f 5/8/6 3/21/3 10/22/9 8/9/7
f 9/23/11 7/24/8 8/25/7 10/26/9
f 10/26/9 12/27/10 11/28/12 9/23/11
f 12/29/10 13/30/13 14/31/14 11/32/12
f 1/15/1 11/18/12 15/33/15 16/34/16
f 12/29/10 2/35/2 17/36/17 18/37/18
f 13/30/13 12/29/10 18/37/18
f 13/38/13 18/39/18 19/40/19 20/41/20
f 14/42/14 15/33/15 11/18/12
f 15/43/15 14/44/14 20/45/20 21/46/21
f 21/46/21 20/45/20 19/47/19
f 22/48/22 16/49/16 23/50/23 24/51/24
f 26/52/25 24/51/24 23/50/23 25/53/26
f 23/54/23 16/34/16 15/33/15 30/55/27
f 15/56/15 21/57/21 27/58/28 30/59/27
f 21/60/21 22/61/22 24/62/24 27/63/28
f 26/64/25 25/65/26 29/66/29 28/67/30
f 25/65/26 23/54/23 30/55/27 29/66/29
f 24/62/24 26/68/25 28/69/30 27/63/28
f 27/58/28 28/70/30 29/71/29 30/59/27
f 22/72/22 21/46/21 19/47/19 31/73/31
f 17/74/17 31/75/31 32/76/32 33/77/33
f 18/37/18 17/36/17 33/78/33 37/79/34
f 40/80/35 19/81/19 18/82/18 37/83/34
f 35/84/36 33/77/33 32/76/32 34/85/37
f 35/86/36 34/87/37 39/88/38 38/89/39
f 33/78/33 35/90/36 38/91/39 37/79/34
f 36/92/40 2/2/2 1/1/1
f 22/72/22 36/93/40 16/94/16
f 36/95/40 31/75/31 17/74/17
f 36/96/40 17/36/17 2/35/2
f 31/73/31 36/93/40 22/72/22
f 36/92/40 1/1/1 16/97/16
f 39/98/38 34/99/37 32/100/32 40/101/35
f 40/101/35 32/100/32 31/73/31 19/47/19
f 39/102/38 40/80/35 37/83/34 38/103/39
