# 3ds Max Wavefront OBJ Exporter v0.97b - (c)2007 guruware
# File Created: 29.03.2021 12:19:27

#
# object low_low_helices001_low
#

v  -2.6783 -2.0597 -28.3233
v  2.7364 -2.0332 -28.3258
v  1.9414 -1.9877 -41.2811
v  -1.7708 -1.9732 -41.2218
v  -22.1931 -1.9922 15.8217
v  -24.8870 -2.0861 11.2043
v  -35.7367 -1.9818 18.3641
v  -33.7480 -1.9602 21.8605
v  22.5160 -1.9585 15.7917
v  24.9839 -1.9569 11.6418
v  3.2801 -1.9012 -0.0303
v  1.4040 -1.7987 2.7808
v  -2.3525 -2.2146 -1.2925
v  -3.2669 -2.2870 -0.1168
v  -1.4735 -0.0162 -0.7975
v  -1.7892 -2.2377 -2.5638
v  2.4490 -1.9525 -1.3100
v  1.9478 -2.1284 -2.4525
v  1.6557 -0.0849 -0.8743
v  -0.1822 0.1011 1.6718
v  -1.7774 -1.7892 2.8121
v  0.0136 -1.9979 2.7866
v  3.0283 -3.7206 0.3341
v  24.6587 -3.1333 11.9475
v  22.5361 -2.9708 16.1073
v  1.7154 -3.6653 2.5132
v  36.4536 -1.9929 18.7750
v  34.4704 -1.9405 22.0152
v  40.1395 -2.4488 23.1769
v  36.3903 -3.0236 18.7544
v  34.3149 -2.9178 22.3689
v  1.5261 -3.1493 -40.8500
v  2.7141 -2.9818 -28.0402
v  -2.3168 -3.0574 -28.2112
v  -1.4406 -3.1375 -40.8242
v  0.0686 -2.5039 -46.2377
v  1.4347 -3.6623 -2.5626
v  -1.2743 -3.7379 -2.5522
v  -24.8170 -2.8938 11.0996
v  -22.0215 -3.0163 15.7162
v  -33.5671 -3.0807 21.6490
v  -35.5424 -3.0606 18.3288
v  -40.0004 -2.4663 23.1656
v  -2.9748 -3.4447 0.1551
v  -1.4385 -3.5563 2.5639
v  -2.1711 -11.7987 -1.2344
v  -0.1016 -11.7949 2.6173
v  2.2969 -11.7972 -1.2705
# 48 vertices

vn -0.8291 0.5589 -0.0139
vn 0.7259 0.6876 -0.0150
vn 0.8218 0.5297 -0.2101
vn -0.8015 0.5619 -0.2047
vn 0.3524 0.7002 0.6209
vn -0.3536 0.7137 -0.6047
vn -0.5164 0.6504 -0.5571
vn 0.2281 0.6409 0.7330
vn -0.3067 0.7839 0.5399
vn 0.4156 0.5663 -0.7117
vn 0.7512 0.4866 -0.4459
vn 0.0335 0.5189 0.8542
vn -0.5344 -0.7767 -0.3333
vn -0.7521 0.3553 -0.5551
vn -0.4419 0.8490 -0.2896
vn -0.8092 0.3962 -0.4338
vn 0.4641 -0.8694 -0.1697
vn 0.7984 0.3929 -0.4562
vn 0.4335 0.8516 -0.2948
vn -0.0235 0.8878 0.4596
vn -0.0352 0.6214 0.7827
vn 0.0095 -0.0271 0.9996
vn 0.8830 -0.4694 -0.0084
vn 0.2869 -0.8245 -0.4877
vn -0.4017 -0.5844 0.7051
vn 0.2848 -0.4370 0.8532
vn 0.5087 0.6657 -0.5460
vn -0.1662 0.8103 0.5620
vn 0.8662 0.0048 0.4996
vn 0.4813 -0.6943 -0.5350
vn -0.2512 -0.5234 0.8142
vn 0.5523 -0.8241 -0.1257
vn 0.7229 -0.6909 -0.0107
vn -0.5835 -0.8120 -0.0144
vn -0.5892 -0.7980 -0.1262
vn -0.0012 0.0017 -1.0000
vn 0.5060 -0.4786 -0.7176
vn -0.4124 -0.4916 -0.7670
vn -0.3800 -0.6550 -0.6531
vn 0.3529 -0.7031 0.6174
vn 0.2217 -0.7311 0.6453
vn -0.4626 -0.7206 -0.5164
vn -0.8652 0.0061 0.5013
vn -0.8473 -0.5203 0.1067
vn -0.8085 -0.5028 0.3059
vn -0.8334 -0.2470 -0.4945
vn -0.0443 -0.2510 0.9670
vn 0.8357 -0.2668 -0.4800
# 48 vertex normals

o low_low_helices001_low
g low_low_helices001_low
s 1
f 1//1 2//2 3//3 4//4 
f 5//5 6//6 7//7 8//8 
f 9//9 10//10 11//11 12//12 
f 13//13 14//14 15//15 16//16 
f 11//11 17//17 18//18 19//19 
f 20//20 21//21 22//22 12//12 
f 14//14 21//21 20//20 15//15 
f 12//12 11//11 19//19 20//20 
f 18//18 16//16 15//15 19//19 
f 20//20 19//19 15//15 
f 23//23 24//24 25//25 26//26 
f 10//10 24//24 23//23 11//11 
f 25//25 9//9 12//12 26//26 
f 27//27 28//28 29//29 
f 30//30 29//29 31//31 
f 27//27 29//29 30//30 
f 29//29 28//28 31//31 
f 30//30 24//24 10//10 27//27 
f 25//25 24//24 30//30 31//31 
f 28//28 9//9 25//25 31//31 
f 27//27 10//10 9//9 28//28 
f 32//32 33//33 34//34 35//35 
f 3//3 2//2 33//33 32//32 
f 34//34 1//1 4//4 35//35 
f 4//4 3//3 36//36 
f 36//36 32//32 35//35 
f 32//32 36//36 3//3 
f 36//36 35//35 4//4 
f 33//33 2//2 18//18 37//37 
f 34//34 33//33 37//37 38//38 
f 16//16 1//1 34//34 38//38 
f 16//16 18//18 2//2 1//1 
f 39//39 40//40 41//41 42//42 
f 7//7 6//6 39//39 42//42 
f 40//40 5//5 8//8 41//41 
f 7//7 43//43 8//8 
f 43//43 42//42 41//41 
f 8//8 43//43 41//41 
f 43//43 7//7 42//42 
f 39//39 6//6 14//14 44//44 
f 45//45 40//40 39//39 44//44 
f 21//21 5//5 40//40 45//45 
f 14//14 6//6 5//5 21//21 
f 38//38 46//46 13//13 16//16 
f 46//46 44//44 14//14 13//13 
f 45//45 47//47 22//22 21//21 
f 47//47 26//26 12//12 22//22 
f 23//23 48//48 17//17 11//11 
f 48//48 37//37 18//18 17//17 
f 48//48 23//23 26//26 47//47 
f 47//47 45//45 44//44 46//46 
f 37//37 48//48 46//46 38//38 
# 39 polygons - 13 triangles

