# This file uses centimeters as units for non-parametric coordinates.

mtllib helice_droit.mtl
g default
v 0.400088 1.266620 0.103460
v 0.214784 1.264760 0.380304
v 4.210493 1.195466 2.823680
v 4.543057 1.165346 2.306542
v 5.053704 1.164766 3.000344
v 5.079220 1.163839 2.956119
v 5.062653 1.114580 2.930892
v 5.024723 1.116141 2.997089
v 4.214452 1.103189 2.830162
v 4.536809 1.113518 2.317527
v 0.206747 0.980988 0.374940
v 0.385070 0.971168 0.083682
v 0.003813 0.000749 0.376577
v 0.277987 0.000603 -0.112181
v -0.220361 1.004352 0.380768
v -0.217260 1.261924 0.381939
v 0.152955 1.266804 -0.327176
v 0.156273 0.968263 -0.303654
v -0.262198 -0.001096 -0.124377
v -0.132889 0.985947 -0.342084
v -0.349991 0.998258 0.027982
v -0.390650 1.239248 0.053382
v -4.544797 1.165583 2.327885
v -4.246799 1.165546 2.876623
v -5.044717 1.181393 2.949822
v -5.022947 1.181186 2.991017
v -4.519567 1.089245 2.360592
v -5.024341 1.112366 2.990198
v -5.051902 1.115317 2.948327
v -4.238416 1.103448 2.845704
v -0.134669 1.259855 -0.342520
v 0.317553 1.178909 -5.008306
v -0.299953 1.176010 -5.019103
v 0.035899 1.173524 -5.781912
v -0.009956 1.172338 -5.783923
v 0.000059 1.530077 0.000028
v 0.282739 1.089143 -5.008826
v 0.039104 1.119294 -5.775163
v -0.007985 1.119029 -5.787352
v -0.286844 1.101592 -5.014381
vt 0.574186 0.483444
vt 0.545681 0.504790
vt 0.262204 0.092049
vt 0.315557 0.053532
vt 0.238586 0.002975
vt 0.243163 0.000000
vt 0.010751 0.072824
vt 0.009842 0.077161
vt 0.004923 0.077087
vt 0.006258 0.070601
vt 0.709069 0.501702
vt 0.714451 0.000020
vt 0.720154 0.000000
vt 0.740695 0.503783
vt 0.058916 0.071776
vt 0.066559 0.065487
vt 0.417436 0.422696
vt 0.396196 0.444378
vt 0.001724 0.000000
vt 0.000000 0.005811
vt 0.004564 0.000000
vt 0.000000 0.000775
vt 0.342790 0.387261
vt 0.324912 0.473881
vt 0.270121 0.439390
vt 0.335712 0.383206
vt 0.062379 0.902444
vt 0.031217 0.883398
vt 0.656870 0.605586
vt 0.758849 0.636144
vt 0.753369 0.672252
vt 0.646636 0.664611
vt 0.429701 0.475499
vt 0.449285 0.456143
vt 0.793685 0.587876
vt 0.790194 0.640837
vt 0.761672 0.588137
vt 0.152976 0.002396
vt 0.167016 0.107710
vt 0.109259 0.108201
vt 0.121828 0.000000
vt 0.335861 0.532753
vt 0.813869 0.205791
vt 0.923652 0.200181
vt 0.927928 0.240135
vt 0.822540 0.265800
vt 0.929581 0.285988
vt 0.278951 0.336423
vt 0.314118 0.355032
vt 0.070894 0.799119
vt 0.012235 0.767265
vt 0.004404 0.852576
vt 0.000000 0.850249
vt 0.795461 0.826176
vt 0.788671 0.829289
vt 0.314399 0.013831
vt 0.352126 0.000000
vt 0.615478 0.429735
vt 0.563575 0.459748
vt 0.631027 0.505353
vt 0.685525 0.001965
vt 0.711717 0.000000
vt 0.640295 0.505794
vt 0.845543 0.893466
vt 0.848447 0.897512
vt 0.842977 0.902048
vt 0.839632 0.897850
vt 0.635018 0.590575
vt 0.642124 0.590586
vt 0.626401 0.516722
vt 0.630879 0.513761
vt 0.953438 0.233879
vt 0.958797 0.284038
vt 0.008621 0.080102
vt 0.039341 0.077892
vt 0.065978 0.577978
vt 0.000000 0.580332
vt 0.820107 0.087778
vt 0.809835 0.087131
vt 0.890378 0.356323
vt 0.876912 0.859458
vt 0.845950 0.855305
vt 0.829477 0.355699
vt 0.037375 0.661209
vt 0.032477 0.661514
vt 0.005436 0.000114
vt 0.009419 0.000000
vt 0.009828 0.004733
vt 0.005607 0.004750
vt 0.813748 0.000000
vt 0.808006 0.001130
vt 0.592809 0.532404
vt 1.000000 0.257867
vt 0.981771 0.205947
vt 0.022319 0.033251
vt 0.834443 0.612802
vt 0.540923 0.550730
vt 0.984178 0.783698
vt 0.983516 0.871133
vt 0.977816 0.871541
vt 0.976085 0.783698
vt 0.859277 0.273046
vt 0.864312 0.274348
vn 0.242713 0.916609 -0.317677
vn -0.150904 0.918979 0.364289
vn -0.160375 0.938056 0.307133
vn 0.197362 0.927183 -0.318402
vn 0.024486 0.994777 0.099090
vn 0.114247 0.990439 -0.077317
vn -0.029357 -0.969790 0.242167
vn 0.149654 -0.982511 -0.110798
vn 0.191815 -0.936793 -0.292620
vn 0.412450 -0.886680 -0.209007
vn -0.154485 -0.936322 0.315335
vn 0.005093 -0.872340 0.488873
vn 0.860171 -0.310160 -0.404855
vn -0.093554 -0.322233 0.942026
vn -0.021875 -0.908753 0.416762
vn 0.109061 0.949385 0.294573
vn 0.455679 0.888440 -0.055060
vn 0.457167 -0.847645 -0.269251
vn -0.850719 -0.307112 -0.426567
vn -0.414979 -0.881901 -0.223703
vn -0.433798 -0.880993 -0.188866
vn -0.249419 0.913159 -0.322384
vn -0.175386 0.946803 -0.269822
vn 0.107335 0.969910 0.218525
vn -0.136246 0.982441 -0.127460
vn 0.038168 0.984777 0.169581
vn 0.180863 -0.922458 0.341116
vn -0.171685 -0.951238 -0.256261
vn -0.169837 -0.980941 -0.094395
vn 0.007527 -0.980287 0.197434
vn -0.388321 0.920122 -0.050810
vn 0.393805 0.919115 -0.012033
vn -0.362799 0.931781 -0.012703
vn 0.373926 -0.927255 -0.019439
vn -0.408971 -0.912365 -0.018233
vn 0.158103 0.984903 -0.070500
vn -0.173159 0.981917 -0.076519
vn 0.162696 -0.981776 -0.098217
vn -0.196338 -0.974775 -0.106140
vn -0.022430 0.999068 -0.036873
s 1
g helice_D retopo
usemtl lambert22SG
f 1/1/1 2/2/2 3/3/3 4/4/4
f 3/3/3 5/5/5 6/6/6 4/4/4
f 6/7/6 5/8/5 8/9/7 7/10/8
f 1/11/1 4/12/4 10/13/9 12/14/10
f 9/15/11 3/16/3 2/17/2 11/18/12
f 5/19/5 3/16/3 9/15/11 8/20/7
f 4/21/4 6/7/6 7/10/8 10/22/9
f 8/23/7 9/24/11 10/25/9 7/26/8
f 9/24/11 11/27/12 12/28/10 10/25/9
f 14/29/13 12/30/10 11/31/12 13/32/14
f 15/33/15 11/18/12 2/17/2 16/34/16
f 17/35/17 1/36/1 12/30/10 18/37/18
f 12/30/10 14/29/13 18/37/18
f 18/38/18 14/39/13 19/40/19 20/41/20
f 15/33/15 13/42/14 11/18/12
f 13/43/14 15/44/15 21/45/21 19/46/19
f 19/46/19 21/45/21 20/47/20
f 16/48/16 22/49/22 23/50/23 24/51/24
f 23/50/23 25/52/25 26/53/26 24/51/24
f 15/33/15 16/34/16 24/54/24 30/55/27
f 21/56/21 15/57/15 30/58/27 27/59/28
f 23/60/23 22/61/22 21/62/21 27/63/28
f 26/64/26 25/65/25 29/66/29 28/67/30
f 24/54/24 26/64/26 28/67/30 30/55/27
f 25/68/25 23/60/23 27/63/28 29/69/29
f 29/70/29 27/59/28 30/58/27 28/71/30
f 20/47/20 21/45/21 22/72/22 31/73/31
f 31/74/31 17/75/17 32/76/32 33/77/33
f 32/78/32 17/35/17 18/37/18 37/79/34
f 37/80/34 18/81/18 20/82/20 40/83/35
f 32/76/32 34/84/36 35/85/37 33/77/33
f 35/86/37 34/87/36 38/88/38 39/89/39
f 34/90/36 32/78/32 37/79/34 38/91/38
f 1/1/1 36/92/40 2/2/2
f 36/93/40 22/72/22 16/94/16
f 31/74/31 36/95/40 17/75/17
f 17/35/17 36/96/40 1/36/1
f 36/93/40 31/73/31 22/72/22
f 2/2/2 36/92/40 16/97/16
f 33/98/33 35/99/37 39/100/39 40/101/35
f 31/73/31 33/98/33 40/101/35 20/47/20
f 40/83/35 39/102/39 38/103/38 37/80/34
