# Blender v2.91.0 OBJ File: 'test.blend'
# www.blender.org
mtllib test.mtl
o Cube
v -1.000000 0.000000 1.000000
v -1.000000 2.000000 1.000000
v -1.000000 0.000000 -1.000000
v -1.000000 2.000000 -1.000000
v 1.000000 0.000000 1.000000
v 1.000000 2.000000 1.000000
v 1.000000 0.000000 -1.000000
v 1.000000 2.000000 -1.000000
v -0.500000 2.527892 0.500000
v -0.500000 2.527892 -0.500000
v 0.500000 2.527892 0.500000
v 0.500000 2.527892 -0.500000
v -0.500000 3.527892 0.500000
v -0.500000 3.527892 -0.500000
v 0.500000 3.527892 0.500000
v 0.500000 3.527892 -0.500000
v 0.000000 4.027892 0.000000
vt 1.000000 0.000000
vt 0.000000 1.000000
vt 1.000000 1.000000
vt 1.000000 1.000000
vt 0.000000 0.000000
vt 1.000000 0.000000
vt 1.000000 0.000000
vt 0.000000 1.000000
vt 1.000000 1.000000
vt 1.000000 1.000000
vt 0.000000 0.000000
vt 1.000000 0.000000
vt 0.000000 1.000000
vt 1.000000 0.000000
vt 1.000000 1.000000
vt 1.000000 0.834961
vt 0.250000 0.334961
vt 0.000000 0.835000
vt 0.750000 0.335000
vt 0.250000 0.835000
vt 0.250000 0.335000
vt 1.000000 0.335000
vt 0.250000 0.835000
vt 0.000000 0.334961
vt 1.000000 0.335000
vt 0.250000 0.835000
vt 0.000000 0.334961
vt 1.000000 0.834961
vt 0.250000 0.334961
vt 0.000000 0.835000
vt 0.250000 0.835000
vt 0.750000 0.835000
vt 0.500000 0.335000
vt 0.750000 0.335000
vt 0.250000 0.835000
vt 0.250000 0.335000
vt 0.750000 0.835000
vt 0.250000 0.335000
vt 0.250000 0.835000
vt 0.750000 0.835000
vt 0.250000 0.335000
vt 0.250000 0.835000
vt 0.250000 0.835000
vt 0.750000 0.835000
vt 0.250000 0.335000
vt 0.750000 0.335000
vt 0.500000 0.835000
vt 0.250000 0.335000
vt 0.750000 0.335000
vt 0.000000 0.000000
vt 0.000000 1.000000
vt 0.000000 0.000000
vt 0.000000 1.000000
vt 0.000000 0.000000
vt 0.750000 0.334961
vt 0.750000 0.835000
vt 0.750000 0.835000
vt 0.750000 0.835000
vt 0.750000 0.334961
vt 0.750000 0.835000
vt 0.750000 0.335000
vt 0.750000 0.335000
vn -1.0000 0.0000 0.0000
vn 0.0000 0.0000 -1.0000
vn 1.0000 0.0000 0.0000
vn 0.0000 0.0000 1.0000
vn 0.0000 -1.0000 0.0000
vn -0.7260 0.6877 0.0000
vn 0.0000 0.6877 0.7260
vn 0.0000 0.6877 -0.7260
vn 0.7260 0.6877 0.0000
vn 0.7071 0.7071 0.0000
vn -0.7071 0.7071 0.0000
vn 0.0000 0.7071 0.7071
vn 0.0000 0.7071 -0.7071
usemtl Material.001
s off
f 2/1/1 3/2/1 1/3/1
f 4/4/2 7/5/2 3/6/2
f 8/7/3 5/8/3 7/9/3
f 6/10/4 1/11/4 5/12/4
f 7/13/5 1/14/5 3/15/5
f 2/16/6 10/17/6 4/18/6
f 11/19/4 13/20/4 9/21/4
f 6/22/7 9/23/7 2/24/7
f 4/25/8 12/26/8 8/27/8
f 8/28/9 11/29/9 6/30/9
f 15/31/10 16/32/10 17/33/10
f 10/34/2 16/35/2 12/36/2
f 12/37/3 15/38/3 11/39/3
f 9/40/1 14/41/1 10/42/1
f 14/43/11 13/44/11 17/33/11
f 13/45/12 15/46/12 17/47/12
f 16/48/13 14/49/13 17/47/13
f 2/1/1 4/50/1 3/2/1
f 4/4/2 8/51/2 7/5/2
f 8/7/3 6/52/3 5/8/3
f 6/10/4 2/53/4 1/11/4
f 7/13/5 5/54/5 1/14/5
f 2/16/6 9/55/6 10/17/6
f 11/19/4 15/56/4 13/20/4
f 6/22/7 11/57/7 9/23/7
f 4/25/8 10/58/8 12/26/8
f 8/28/9 12/59/9 11/29/9
f 10/34/2 14/60/2 16/35/2
f 12/37/3 16/61/3 15/38/3
f 9/40/1 13/62/1 14/41/1
o Cube.001
v 1.000000 0.000000 0.500000
v 1.000000 1.000000 0.500000
v 1.000000 0.000000 -0.500000
v 1.000000 1.000000 -0.500000
v 2.000000 0.000000 0.500000
v 2.000000 1.000000 0.500000
v 2.000000 0.000000 -0.500000
v 2.000000 1.000000 -0.500000
vt 0.000000 0.000000
vt 0.000000 1.000000
vt 1.000000 1.000000
vt 1.000000 0.000000
vt 0.000000 0.000000
vt 0.000000 1.000000
vt 1.000000 1.000000
vt 1.000000 0.000000
vt 0.000000 0.000000
vt 0.000000 1.000000
vt 1.000000 1.000000
vt 1.000000 0.000000
vt 0.000000 0.000000
vt 0.000000 1.000000
vt 1.000000 1.000000
vt 1.000000 0.000000
vt 0.000000 1.000000
vt 1.000000 1.000000
vt 1.000000 0.000000
vt 0.000000 0.000000
vn -1.0000 0.0000 0.0000
vn 0.0000 0.0000 -1.0000
vn 1.0000 0.0000 0.0000
vn 0.0000 0.0000 1.0000
vn 0.0000 -1.0000 0.0000
vn 0.0000 1.0000 0.0000
usemtl Material
s off
f 18/63/14 19/64/14 21/65/14 20/66/14
f 20/67/15 21/68/15 25/69/15 24/70/15
f 24/71/16 25/72/16 23/73/16 22/74/16
f 22/75/17 23/76/17 19/77/17 18/78/17
f 20/66/18 24/71/18 22/79/18 18/80/18
f 25/81/19 21/82/19 19/64/19 23/73/19
o Cube.002
v 2.000000 0.000000 0.250000
v 2.000000 0.500000 0.250000
v 2.000000 0.000000 -0.250000
v 2.000000 0.500000 -0.250000
v 2.500000 0.000000 0.250000
v 2.500000 0.500000 0.250000
v 2.500000 0.000000 -0.250000
v 2.500000 0.500000 -0.250000
vt 0.000000 0.000000
vt 0.000000 1.000000
vt 1.000000 1.000000
vt 1.000000 0.000000
vt 0.000000 0.000000
vt 0.000000 1.000000
vt 1.000000 1.000000
vt 1.000000 0.000000
vt 0.000000 0.000000
vt 0.000000 1.000000
vt 1.000000 1.000000
vt 1.000000 0.000000
vt 0.000000 0.000000
vt 0.000000 1.000000
vt 1.000000 1.000000
vt 1.000000 0.000000
vt 0.000000 1.000000
vt 1.000000 1.000000
vt 1.000000 0.000000
vt 0.000000 0.000000
vn -1.0000 0.0000 0.0000
vn 0.0000 0.0000 -1.0000
vn 1.0000 0.0000 0.0000
vn 0.0000 0.0000 1.0000
vn 0.0000 -1.0000 0.0000
vn 0.0000 1.0000 0.0000
usemtl smol
s off
f 26/83/20 27/84/20 29/85/20 28/86/20
f 28/87/21 29/88/21 33/89/21 32/90/21
f 32/91/22 33/92/22 31/93/22 30/94/22
f 30/95/23 31/96/23 27/97/23 26/98/23
f 28/86/24 32/91/24 30/99/24 26/100/24
f 33/101/25 29/102/25 27/84/25 31/93/25
