# 3ds Max Wavefront OBJ Exporter v0.97b - (c)2007 guruware
# File Created: 29.03.2021 12:21:25

#
# object polySurface3_low_low_helices_low
#

v  -5.6125 -4.3161 -59.3531
v  5.7342 -4.2608 -59.3582
v  4.0683 -4.1654 -86.5068
v  -3.7108 -4.1349 -86.3825
v  -46.5069 -4.1746 33.1552
v  -52.1519 -4.3714 23.4792
v  -74.8882 -4.1529 38.4830
v  -70.7207 -4.1077 45.8099
v  47.1836 -4.1042 33.0923
v  52.3551 -4.1008 24.3960
v  6.8737 -3.9840 -0.0635
v  2.9421 -3.7693 5.8274
v  -4.9297 -4.6409 -2.7085
v  -6.8460 -4.7924 -0.2448
v  -3.0877 -0.0339 -1.6711
v  -3.7495 -4.6893 -5.3726
v  5.1320 -4.0915 -2.7451
v  4.0818 -4.4602 -5.1393
v  3.4695 -0.1779 -1.8322
v  -0.3818 0.2118 3.5033
v  -3.7247 -3.7494 5.8929
v  0.0285 -4.1867 5.8396
v  6.3459 -7.7966 0.7002
v  51.6736 -6.5659 25.0367
v  47.2256 -6.2255 33.7537
v  3.5948 -7.6808 5.2665
v  76.3905 -4.1762 39.3441
v  72.2346 -4.0664 46.1340
v  84.1146 -5.1315 48.5685
v  76.2579 -6.3361 39.3009
v  71.9088 -6.1144 46.8752
v  3.1980 -6.5996 -85.6034
v  5.6875 -6.2485 -58.7599
v  -4.8550 -6.4069 -59.1180
v  -3.0189 -6.5747 -85.5492
v  0.1438 -5.2471 -96.8935
v  3.0064 -7.6746 -5.3700
v  -2.6705 -7.8329 -5.3483
v  -52.0054 -6.0641 23.2599
v  -46.1472 -6.3209 32.9341
v  -70.3417 -6.4558 45.3666
v  -74.4810 -6.4136 38.4090
v  -83.8230 -5.1683 48.5447
v  -6.2339 -7.2186 0.3250
v  -3.0144 -7.4524 5.3727
v  -4.5496 -24.7247 -2.5868
v  -0.2130 -24.7168 5.4847
v  4.8133 -24.7217 -2.6624
# 48 vertices

vn -0.8291 0.5589 -0.0139
vn 0.7259 0.6876 -0.0150
vn 0.8217 0.5297 -0.2101
vn -0.8015 0.5619 -0.2047
vn 0.3524 0.7002 0.6209
vn -0.3536 0.7137 -0.6047
vn -0.5164 0.6504 -0.5571
vn 0.2281 0.6409 0.7330
vn -0.3067 0.7839 0.5399
vn 0.4156 0.5663 -0.7117
vn 0.7512 0.4866 -0.4459
vn 0.0335 0.5189 0.8542
vn -0.5344 -0.7767 -0.3333
vn -0.7521 0.3553 -0.5551
vn -0.4419 0.8490 -0.2896
vn -0.8092 0.3962 -0.4338
vn 0.4641 -0.8694 -0.1697
vn 0.7984 0.3929 -0.4562
vn 0.4335 0.8516 -0.2948
vn -0.0235 0.8878 0.4596
vn -0.0352 0.6214 0.7827
vn 0.0095 -0.0271 0.9996
vn 0.8830 -0.4694 -0.0084
vn 0.2869 -0.8245 -0.4877
vn -0.4017 -0.5844 0.7051
vn 0.2848 -0.4370 0.8532
vn 0.5087 0.6657 -0.5460
vn -0.1662 0.8103 0.5620
vn 0.8662 0.0048 0.4996
vn 0.4813 -0.6943 -0.5350
vn -0.2512 -0.5234 0.8142
vn 0.5523 -0.8241 -0.1257
vn 0.7229 -0.6909 -0.0107
vn -0.5835 -0.8120 -0.0144
vn -0.5892 -0.7980 -0.1262
vn -0.0012 0.0017 -1.0000
vn 0.5060 -0.4786 -0.7176
vn -0.4124 -0.4916 -0.7670
vn -0.3800 -0.6550 -0.6531
vn 0.3529 -0.7031 0.6174
vn 0.2217 -0.7311 0.6453
vn -0.4626 -0.7206 -0.5164
vn -0.8652 0.0061 0.5013
vn -0.8473 -0.5203 0.1067
vn -0.8085 -0.5028 0.3059
vn -0.8334 -0.2470 -0.4945
vn -0.0443 -0.2510 0.9670
vn 0.8357 -0.2668 -0.4800
# 48 vertex normals

o polySurface3_low_low_helices_low
g polySurface3_low_low_helices_low
s 1
f 1//1 2//2 3//3 4//4 
f 5//5 6//6 7//7 8//8 
f 9//9 10//10 11//11 12//12 
f 13//13 14//14 15//15 16//16 
f 11//11 17//17 18//18 19//19 
f 20//20 21//21 22//22 12//12 
f 14//14 21//21 20//20 15//15 
f 12//12 11//11 19//19 20//20 
f 18//18 16//16 15//15 19//19 
f 20//20 19//19 15//15 
f 23//23 24//24 25//25 26//26 
f 10//10 24//24 23//23 11//11 
f 25//25 9//9 12//12 26//26 
f 27//27 28//28 29//29 
f 30//30 29//29 31//31 
f 27//27 29//29 30//30 
f 29//29 28//28 31//31 
f 30//30 24//24 10//10 27//27 
f 25//25 24//24 30//30 31//31 
f 28//28 9//9 25//25 31//31 
f 27//27 10//10 9//9 28//28 
f 32//32 33//33 34//34 35//35 
f 3//3 2//2 33//33 32//32 
f 34//34 1//1 4//4 35//35 
f 4//4 3//3 36//36 
f 36//36 32//32 35//35 
f 32//32 36//36 3//3 
f 36//36 35//35 4//4 
f 33//33 2//2 18//18 37//37 
f 34//34 33//33 37//37 38//38 
f 16//16 1//1 34//34 38//38 
f 16//16 18//18 2//2 1//1 
f 39//39 40//40 41//41 42//42 
f 7//7 6//6 39//39 42//42 
f 40//40 5//5 8//8 41//41 
f 7//7 43//43 8//8 
f 43//43 42//42 41//41 
f 8//8 43//43 41//41 
f 43//43 7//7 42//42 
f 39//39 6//6 14//14 44//44 
f 45//45 40//40 39//39 44//44 
f 21//21 5//5 40//40 45//45 
f 14//14 6//6 5//5 21//21 
f 38//38 46//46 13//13 16//16 
f 46//46 44//44 14//14 13//13 
f 45//45 47//47 22//22 21//21 
f 47//47 26//26 12//12 22//22 
f 23//23 48//48 17//17 11//11 
f 48//48 37//37 18//18 17//17 
f 48//48 23//23 26//26 47//47 
f 47//47 45//45 44//44 46//46 
f 37//37 48//48 46//46 38//38 
# 39 polygons - 13 triangles

